<mxfile host="app.diagrams.net" agent="Mozilla/5.0 (Windows NT 10.0; Win64; x64) AppleWebKit/537.36 (KHTML, like Gecko) Chrome/131.0.0.0 Safari/537.36" version="24.9.0">
  <diagram name="Сторінка-1" id="_P8BPEHnTyiZa0awESua">
    <mxGraphModel dx="2670" dy="757" grid="1" gridSize="10" guides="1" tooltips="1" connect="1" arrows="1" fold="1" page="1" pageScale="1" pageWidth="827" pageHeight="1169" math="0" shadow="0">
      <root>
        <mxCell id="0" />
        <mxCell id="1" parent="0" />
        <mxCell id="jUfuy23zTMsfWPFgPykN-14" style="edgeStyle=orthogonalEdgeStyle;rounded=0;orthogonalLoop=1;jettySize=auto;html=1;exitX=1;exitY=0.5;exitDx=0;exitDy=0;entryX=0.75;entryY=0;entryDx=0;entryDy=0;strokeColor=#63b1ff;endArrow=ERzeroToOne;endFill=0;" parent="1" source="jUfuy23zTMsfWPFgPykN-1" target="jUfuy23zTMsfWPFgPykN-12" edge="1">
          <mxGeometry relative="1" as="geometry">
            <Array as="points">
              <mxPoint x="410" y="70" />
              <mxPoint x="410" y="145" />
              <mxPoint x="350" y="145" />
            </Array>
          </mxGeometry>
        </mxCell>
        <mxCell id="jUfuy23zTMsfWPFgPykN-15" style="edgeStyle=orthogonalEdgeStyle;rounded=0;orthogonalLoop=1;jettySize=auto;html=1;exitX=0;exitY=0.5;exitDx=0;exitDy=0;entryX=0.25;entryY=0;entryDx=0;entryDy=0;strokeColor=#63b1ff;endArrow=ERzeroToMany;endFill=0;" parent="1" source="jUfuy23zTMsfWPFgPykN-1" target="jUfuy23zTMsfWPFgPykN-12" edge="1">
          <mxGeometry relative="1" as="geometry" />
        </mxCell>
        <mxCell id="jUfuy23zTMsfWPFgPykN-1" value="manages" style="rhombus;whiteSpace=wrap;html=1;strokeColor=#3399FF;" parent="1" vertex="1">
          <mxGeometry x="250" y="30" width="140" height="80" as="geometry" />
        </mxCell>
        <mxCell id="jUfuy23zTMsfWPFgPykN-5" value="department_id" style="ellipse;whiteSpace=wrap;html=1;dashed=1;dashPattern=8 8;" parent="1" vertex="1">
          <mxGeometry x="-80" y="480" width="90" height="50" as="geometry" />
        </mxCell>
        <mxCell id="jUfuy23zTMsfWPFgPykN-6" value="employment_data" style="ellipse;whiteSpace=wrap;html=1;" parent="1" vertex="1">
          <mxGeometry x="-125" y="420" width="100" height="50" as="geometry" />
        </mxCell>
        <mxCell id="jUfuy23zTMsfWPFgPykN-7" value="position" style="ellipse;whiteSpace=wrap;html=1;" parent="1" vertex="1">
          <mxGeometry x="-140" y="370" width="100" height="50" as="geometry" />
        </mxCell>
        <mxCell id="jUfuy23zTMsfWPFgPykN-8" value="last_name" style="ellipse;whiteSpace=wrap;html=1;" parent="1" vertex="1">
          <mxGeometry x="-150" y="300" width="100" height="60" as="geometry" />
        </mxCell>
        <mxCell id="jUfuy23zTMsfWPFgPykN-9" value="first_name" style="ellipse;whiteSpace=wrap;html=1;" parent="1" vertex="1">
          <mxGeometry x="-150" y="230" width="100" height="60" as="geometry" />
        </mxCell>
        <mxCell id="jUfuy23zTMsfWPFgPykN-10" value="user_name" style="ellipse;whiteSpace=wrap;html=1;" parent="1" vertex="1">
          <mxGeometry x="-120" y="160" width="90" height="60" as="geometry" />
        </mxCell>
        <mxCell id="jUfuy23zTMsfWPFgPykN-11" value="employee_id" style="ellipse;whiteSpace=wrap;html=1;" parent="1" vertex="1">
          <mxGeometry x="-30" y="120" width="90" height="60" as="geometry" />
        </mxCell>
        <mxCell id="jUfuy23zTMsfWPFgPykN-25" style="edgeStyle=orthogonalEdgeStyle;rounded=0;orthogonalLoop=1;jettySize=auto;html=1;exitX=0;exitY=0;exitDx=0;exitDy=0;entryX=1;entryY=0.5;entryDx=0;entryDy=0;curved=1;" parent="1" source="jUfuy23zTMsfWPFgPykN-12" target="jUfuy23zTMsfWPFgPykN-11" edge="1">
          <mxGeometry relative="1" as="geometry" />
        </mxCell>
        <mxCell id="jUfuy23zTMsfWPFgPykN-32" style="edgeStyle=orthogonalEdgeStyle;rounded=0;orthogonalLoop=1;jettySize=auto;html=1;exitX=0.25;exitY=1;exitDx=0;exitDy=0;entryX=1;entryY=0.5;entryDx=0;entryDy=0;curved=1;" parent="1" source="jUfuy23zTMsfWPFgPykN-12" target="jUfuy23zTMsfWPFgPykN-5" edge="1">
          <mxGeometry relative="1" as="geometry" />
        </mxCell>
        <mxCell id="jUfuy23zTMsfWPFgPykN-34" style="edgeStyle=orthogonalEdgeStyle;rounded=0;orthogonalLoop=1;jettySize=auto;html=1;exitX=0.25;exitY=1;exitDx=0;exitDy=0;entryX=1;entryY=0.5;entryDx=0;entryDy=0;curved=1;" parent="1" source="jUfuy23zTMsfWPFgPykN-12" target="jUfuy23zTMsfWPFgPykN-33" edge="1">
          <mxGeometry relative="1" as="geometry" />
        </mxCell>
        <mxCell id="jUfuy23zTMsfWPFgPykN-36" style="edgeStyle=orthogonalEdgeStyle;rounded=0;orthogonalLoop=1;jettySize=auto;html=1;exitX=0.25;exitY=1;exitDx=0;exitDy=0;entryX=1;entryY=0.5;entryDx=0;entryDy=0;curved=1;" parent="1" source="jUfuy23zTMsfWPFgPykN-12" target="jUfuy23zTMsfWPFgPykN-35" edge="1">
          <mxGeometry relative="1" as="geometry" />
        </mxCell>
        <mxCell id="jUfuy23zTMsfWPFgPykN-38" style="edgeStyle=orthogonalEdgeStyle;rounded=0;orthogonalLoop=1;jettySize=auto;html=1;exitX=0;exitY=0;exitDx=0;exitDy=0;entryX=1;entryY=0.5;entryDx=0;entryDy=0;curved=1;" parent="1" source="jUfuy23zTMsfWPFgPykN-12" target="jUfuy23zTMsfWPFgPykN-10" edge="1">
          <mxGeometry relative="1" as="geometry" />
        </mxCell>
        <mxCell id="jUfuy23zTMsfWPFgPykN-39" style="edgeStyle=orthogonalEdgeStyle;rounded=0;orthogonalLoop=1;jettySize=auto;html=1;exitX=0;exitY=0.25;exitDx=0;exitDy=0;entryX=1;entryY=0.5;entryDx=0;entryDy=0;curved=1;" parent="1" source="jUfuy23zTMsfWPFgPykN-12" target="jUfuy23zTMsfWPFgPykN-9" edge="1">
          <mxGeometry relative="1" as="geometry" />
        </mxCell>
        <mxCell id="jUfuy23zTMsfWPFgPykN-40" style="edgeStyle=orthogonalEdgeStyle;rounded=0;orthogonalLoop=1;jettySize=auto;html=1;exitX=0;exitY=0.5;exitDx=0;exitDy=0;entryX=1;entryY=0.5;entryDx=0;entryDy=0;curved=1;" parent="1" source="jUfuy23zTMsfWPFgPykN-12" target="jUfuy23zTMsfWPFgPykN-8" edge="1">
          <mxGeometry relative="1" as="geometry" />
        </mxCell>
        <mxCell id="jUfuy23zTMsfWPFgPykN-41" style="edgeStyle=orthogonalEdgeStyle;rounded=0;orthogonalLoop=1;jettySize=auto;html=1;exitX=0;exitY=0.75;exitDx=0;exitDy=0;entryX=1;entryY=0.5;entryDx=0;entryDy=0;curved=1;" parent="1" source="jUfuy23zTMsfWPFgPykN-12" target="jUfuy23zTMsfWPFgPykN-7" edge="1">
          <mxGeometry relative="1" as="geometry" />
        </mxCell>
        <mxCell id="jUfuy23zTMsfWPFgPykN-42" style="edgeStyle=orthogonalEdgeStyle;rounded=0;orthogonalLoop=1;jettySize=auto;html=1;exitX=0;exitY=1;exitDx=0;exitDy=0;entryX=1;entryY=0.5;entryDx=0;entryDy=0;curved=1;" parent="1" source="jUfuy23zTMsfWPFgPykN-12" target="jUfuy23zTMsfWPFgPykN-6" edge="1">
          <mxGeometry relative="1" as="geometry" />
        </mxCell>
        <mxCell id="jUfuy23zTMsfWPFgPykN-44" style="edgeStyle=orthogonalEdgeStyle;rounded=0;orthogonalLoop=1;jettySize=auto;html=1;exitX=0.25;exitY=1;exitDx=0;exitDy=0;entryX=1;entryY=0.5;entryDx=0;entryDy=0;curved=1;" parent="1" source="jUfuy23zTMsfWPFgPykN-12" target="jUfuy23zTMsfWPFgPykN-43" edge="1">
          <mxGeometry relative="1" as="geometry" />
        </mxCell>
        <mxCell id="jUfuy23zTMsfWPFgPykN-12" value="employee" style="rounded=0;whiteSpace=wrap;html=1;strokeColor=#f52929;" parent="1" vertex="1">
          <mxGeometry x="260" y="180" width="120" height="60" as="geometry" />
        </mxCell>
        <mxCell id="jUfuy23zTMsfWPFgPykN-19" style="edgeStyle=orthogonalEdgeStyle;rounded=0;orthogonalLoop=1;jettySize=auto;html=1;strokeColor=#63b1ff;endArrow=ERzeroToOne;endFill=0;" parent="1" source="jUfuy23zTMsfWPFgPykN-17" target="jUfuy23zTMsfWPFgPykN-20" edge="1">
          <mxGeometry relative="1" as="geometry">
            <mxPoint x="991.5999755859375" y="210" as="targetPoint" />
          </mxGeometry>
        </mxCell>
        <mxCell id="jUfuy23zTMsfWPFgPykN-61" style="edgeStyle=orthogonalEdgeStyle;rounded=0;orthogonalLoop=1;jettySize=auto;html=1;exitX=0;exitY=0.5;exitDx=0;exitDy=0;entryX=1;entryY=0.5;entryDx=0;entryDy=0;strokeColor=#63b1ff;endArrow=ERzeroToMany;endFill=0;" parent="1" source="jUfuy23zTMsfWPFgPykN-17" target="jUfuy23zTMsfWPFgPykN-12" edge="1">
          <mxGeometry relative="1" as="geometry" />
        </mxCell>
        <mxCell id="jUfuy23zTMsfWPFgPykN-17" value="works_for" style="rhombus;whiteSpace=wrap;html=1;strokeColor=#3399FF;" parent="1" vertex="1">
          <mxGeometry x="640" y="170" width="140" height="80" as="geometry" />
        </mxCell>
        <mxCell id="jUfuy23zTMsfWPFgPykN-20" value="departament" style="rounded=0;whiteSpace=wrap;html=1;strokeColor=#f52929;" parent="1" vertex="1">
          <mxGeometry x="931.5999755859375" y="180" width="120" height="60" as="geometry" />
        </mxCell>
        <mxCell id="jUfuy23zTMsfWPFgPykN-33" value="manager_id" style="ellipse;whiteSpace=wrap;html=1;dashed=1;dashPattern=8 8;" parent="1" vertex="1">
          <mxGeometry x="-40" y="530" width="90" height="50" as="geometry" />
        </mxCell>
        <mxCell id="jUfuy23zTMsfWPFgPykN-35" value="rate" style="ellipse;whiteSpace=wrap;html=1;" parent="1" vertex="1">
          <mxGeometry x="40" y="580" width="100" height="50" as="geometry" />
        </mxCell>
        <mxCell id="jUfuy23zTMsfWPFgPykN-43" value="bonus" style="ellipse;whiteSpace=wrap;html=1;dashed=1;dashPattern=8 8;" parent="1" vertex="1">
          <mxGeometry x="160" y="600" width="90" height="50" as="geometry" />
        </mxCell>
        <mxCell id="jUfuy23zTMsfWPFgPykN-50" style="edgeStyle=orthogonalEdgeStyle;rounded=0;orthogonalLoop=1;jettySize=auto;html=1;exitX=1;exitY=0.5;exitDx=0;exitDy=0;entryX=0.5;entryY=0;entryDx=0;entryDy=0;strokeColor=#63b1ff;endArrow=ERzeroToMany;endFill=0;" parent="1" source="jUfuy23zTMsfWPFgPykN-46" target="jUfuy23zTMsfWPFgPykN-49" edge="1">
          <mxGeometry relative="1" as="geometry" />
        </mxCell>
        <mxCell id="jUfuy23zTMsfWPFgPykN-62" style="edgeStyle=orthogonalEdgeStyle;rounded=0;orthogonalLoop=1;jettySize=auto;html=1;exitX=0.5;exitY=0;exitDx=0;exitDy=0;entryX=0.5;entryY=1;entryDx=0;entryDy=0;endArrow=ERmandOne;endFill=0;strokeColor=#63b1ff;" parent="1" source="jUfuy23zTMsfWPFgPykN-46" target="jUfuy23zTMsfWPFgPykN-12" edge="1">
          <mxGeometry relative="1" as="geometry" />
        </mxCell>
        <mxCell id="jUfuy23zTMsfWPFgPykN-46" value="places" style="rhombus;whiteSpace=wrap;html=1;strokeColor=#3399FF;" parent="1" vertex="1">
          <mxGeometry x="490" y="380" width="140" height="80" as="geometry" />
        </mxCell>
        <mxCell id="jUfuy23zTMsfWPFgPykN-49" value="orders" style="rounded=0;whiteSpace=wrap;html=1;strokeColor=#f52929;" parent="1" vertex="1">
          <mxGeometry x="640" y="510" width="120" height="60" as="geometry" />
        </mxCell>
        <mxCell id="jUfuy23zTMsfWPFgPykN-58" style="edgeStyle=orthogonalEdgeStyle;rounded=0;orthogonalLoop=1;jettySize=auto;html=1;exitX=1;exitY=0.5;exitDx=0;exitDy=0;entryX=0.5;entryY=0;entryDx=0;entryDy=0;strokeColor=#63b1ff;endArrow=ERmandOne;endFill=0;" parent="1" source="jUfuy23zTMsfWPFgPykN-51" target="jUfuy23zTMsfWPFgPykN-55" edge="1">
          <mxGeometry relative="1" as="geometry" />
        </mxCell>
        <mxCell id="jUfuy23zTMsfWPFgPykN-64" style="edgeStyle=orthogonalEdgeStyle;rounded=0;orthogonalLoop=1;jettySize=auto;html=1;exitX=0.5;exitY=0;exitDx=0;exitDy=0;entryX=0.75;entryY=1;entryDx=0;entryDy=0;strokeColor=#63b1ff;endArrow=ERoneToMany;endFill=0;" parent="1" source="jUfuy23zTMsfWPFgPykN-51" target="jUfuy23zTMsfWPFgPykN-49" edge="1">
          <mxGeometry relative="1" as="geometry" />
        </mxCell>
        <mxCell id="jUfuy23zTMsfWPFgPykN-51" value="buys" style="rhombus;whiteSpace=wrap;html=1;strokeColor=#3399FF;" parent="1" vertex="1">
          <mxGeometry x="770" y="630" width="140" height="80" as="geometry" />
        </mxCell>
        <mxCell id="jUfuy23zTMsfWPFgPykN-57" style="edgeStyle=orthogonalEdgeStyle;rounded=0;orthogonalLoop=1;jettySize=auto;html=1;exitX=0;exitY=0.5;exitDx=0;exitDy=0;entryX=0.5;entryY=0;entryDx=0;entryDy=0;strokeColor=#63b1ff;endArrow=ERmandOne;endFill=0;" parent="1" source="jUfuy23zTMsfWPFgPykN-52" target="jUfuy23zTMsfWPFgPykN-56" edge="1">
          <mxGeometry relative="1" as="geometry" />
        </mxCell>
        <mxCell id="jUfuy23zTMsfWPFgPykN-52" value="sells" style="rhombus;whiteSpace=wrap;html=1;strokeColor=#3399FF;" parent="1" vertex="1">
          <mxGeometry x="490" y="630" width="140" height="80" as="geometry" />
        </mxCell>
        <mxCell id="jUfuy23zTMsfWPFgPykN-55" value="customer" style="rounded=0;whiteSpace=wrap;html=1;strokeColor=#ff0000;" parent="1" vertex="1">
          <mxGeometry x="1000" y="720" width="120" height="60" as="geometry" />
        </mxCell>
        <mxCell id="jUfuy23zTMsfWPFgPykN-56" value="product" style="rounded=0;whiteSpace=wrap;html=1;strokeColor=#f52929;" parent="1" vertex="1">
          <mxGeometry x="294" y="720" width="120" height="60" as="geometry" />
        </mxCell>
        <mxCell id="jUfuy23zTMsfWPFgPykN-63" style="edgeStyle=orthogonalEdgeStyle;rounded=0;orthogonalLoop=1;jettySize=auto;html=1;exitX=0.5;exitY=0;exitDx=0;exitDy=0;entryX=0.167;entryY=1;entryDx=0;entryDy=0;entryPerimeter=0;strokeColor=#63b1ff;endArrow=ERzeroToMany;endFill=0;" parent="1" source="jUfuy23zTMsfWPFgPykN-52" target="jUfuy23zTMsfWPFgPykN-49" edge="1">
          <mxGeometry relative="1" as="geometry" />
        </mxCell>
      </root>
    </mxGraphModel>
  </diagram>
</mxfile>
